Coordinates
version=1
nRows=19
nColumns=24
inDegrees=yes

Units are S.I. units (second, meters, Newtons, ...)
Angles are in degrees.

endheader
time	pelvis_tilt	pelvis_list	pelvis_rotation	pelvis_tx	pelvis_ty	pelvis_tz	hip_flexion_r	hip_adduction_r	hip_rotation_r	knee_angle_r	ankle_angle_r	subtalar_angle_r	mtp_angle_r	hip_flexion_l	hip_adduction_l	hip_rotation_l	knee_angle_l	ankle_angle_l	subtalar_angle_l	mtp_angle_l	lumbar_extension	lumbar_bending	lumbar_rotation
      4.04000000	     -9.68121425	     -6.84912135	      8.99428219	     -0.21805901	     -0.03486960	      0.64725620	     30.29310004	      4.63592168	      0.13784481	    -33.12053487	      3.85152326	     -4.42096397	     13.71196457	     15.99004798	     -5.26495830	      4.81907727	    -61.21337447	    -24.18373097	     10.41291464	     32.48522028	      9.74306041	     13.79668767	    -10.51073882
      4.04500000	     -9.59106453	     -6.78413305	      8.82918490	     -0.21090834	     -0.03362233	      0.64750593	     29.51482118	      4.79128531	      0.40904619	    -32.74526257	      4.21171435	     -4.33343686	     13.69917645	     16.95082326	     -5.13970948	      4.52746396	    -62.43391157	    -23.07341555	     10.90532277	     33.34285855	      9.56444828	     13.79450797	    -10.15298005
      4.05000000	     -9.52318388	     -6.79420787	      8.67052857	     -0.20369399	     -0.03237498	      0.64789458	     28.73074700	      5.03549597	      0.69035561	    -32.29112444	      4.46609941	     -4.47238704	     13.49454471	     17.94264760	     -5.12089791	      4.26477696	    -63.56513513	    -22.15296753	     11.29014488	     34.25760300	      9.44321704	     13.84165993	     -9.82038346
      4.05500000	     -9.45282584	     -6.81778793	      8.53570745	     -0.19646408	     -0.03109517	      0.64828250	     27.91609114	      5.27840231	      0.95564616	    -31.78594051	      4.70266132	     -4.63120240	     13.18808776	     18.93062609	     -5.12259334	      4.01362489	    -64.60372072	    -21.47686773	     11.37192946	     35.02583922	      9.33632877	     13.88865381	     -9.52758294
      4.06000000	     -9.37348284	     -6.77686696	      8.44897597	     -0.18922687	     -0.02975278	      0.64867378	     27.06821849	      5.43750624	      1.20742911	    -31.29716796	      5.12196426	     -4.64626984	     12.10369936	     19.87309434	     -5.03802888	      3.82639520	    -65.49246084	    -21.10835046	     11.22665887	     36.00038228	      9.22477278	     13.84499183	     -9.26745214
      4.06500000	     -9.32031676	     -6.79266111	      8.30964187	     -0.18199774	     -0.02848837	      0.64909087	     26.23069386	      5.65713645	      1.48949073	    -30.71616706	      5.31249429	     -4.78908255	     11.88727162	     20.86252981	     -5.04174374	      3.56316278	    -66.39133568	    -20.63698692	     10.88078467	     35.93840782	      9.14141690	     13.86789441	     -8.98492653
      4.07000000	     -9.25571806	     -6.82251870	      8.19558711	     -0.17476686	     -0.02722376	      0.64942870	     25.36649858	      5.85422028	      1.67509135	    -30.10006257	      5.49934164	     -4.85206158	     11.71848637	     21.83015447	     -5.05237417	      3.33107608	    -67.20075086	    -20.28629670	     10.33385552	     35.75201674	      9.05781574	     13.90683943	     -8.69258512
      4.07500000	     -9.18983129	     -6.82580731	      8.04057451	     -0.16746978	     -0.02598300	      0.64986386	     24.47233517	      6.05366100	      1.98371552	    -29.46274419	      5.76305541	     -4.87202666	     11.31813314	     22.77088313	     -5.06403170	      3.04003953	    -67.97132905	    -19.76399251	      9.76653671	     34.65601819	      8.97243091	     13.90968778	     -8.42822515
      4.08000000	     -9.13916818	     -6.86301702	      7.94929968	     -0.16031128	     -0.02478941	      0.65020996	     23.60756510	      6.23326901	      2.14165420	    -28.80062068	      5.89718390	     -4.95759631	     11.17457262	     23.73484318	     -5.07542131	      2.85044608	    -68.60777391	    -19.55494707	      8.97087018	     34.38783440	      8.90057410	     13.93618857	     -8.19235014
      4.08500000	     -9.06952672	     -6.84786429	      7.77435756	     -0.15302207	     -0.02359950	      0.65066584	     22.68817297	      6.40218713	      2.45502584	    -28.12362951	      6.13313218	     -4.96410853	     10.76368915	     24.62879862	     -5.08405323	      2.54256697	    -69.21358758	    -18.99731851	      8.28455773	     32.96479887	      8.80252425	     13.91834509	     -7.90239383
      4.09000000	     -9.03052232	     -6.84022580	      7.67000377	     -0.14585544	     -0.02246747	      0.65108022	     21.80503985	      6.54185158	      2.70537382	    -27.42383849	      6.27072590	     -5.09015448	     10.48806706	     25.56095525	     -5.05776544	      2.34652837	    -69.69096897	    -18.71316337	      7.49102764	     32.32036228	      8.73491734	     13.88331374	     -7.67963020
      4.09500000	     -8.98502324	     -6.82015228	      7.52530759	     -0.13862997	     -0.02138222	      0.65154091	     20.91029335	      6.67108521	      2.92456382	    -26.71767373	      6.38761676	     -5.22259232	     10.23078740	     26.44105050	     -5.05004797	      2.10050286	    -70.07325051	    -18.32762010	      6.70872384	     31.72821855	      8.65771322	     13.83804406	     -7.42469577
      4.10000000	     -8.91732681	     -6.80284852	      7.34562512	     -0.13143122	     -0.02034597	      0.65200190	     19.98956752	      6.80701411	      3.20555874	    -26.01700533	      6.57874265	     -5.18531967	      9.84212341	     27.28623190	     -5.05619486	      1.85995288	    -70.43665985	    -17.66728627	      6.17493768	     30.49045835	      8.53726796	     13.81159301	     -7.08097984
      4.10500000	     -8.91380038	     -6.78892733	      7.21935676	     -0.12424540	     -0.01941440	      0.65244947	     19.13545275	      6.91077604	      3.40785399	    -25.29014395	      6.68164137	     -5.24294208	      9.74923539	     28.18533448	     -5.03608042	      1.70593826	    -70.64705471	    -17.36602219	      5.55569839	     30.39327969	      8.50671018	     13.75781769	     -6.87125855
      4.11000000	     -8.85099055	     -6.64647845	      6.99240611	     -0.11703867	     -0.01839852	      0.65306774	     18.20186462	      6.94387248	      3.83055694	    -24.58722022	      6.75386300	     -5.42388149	      9.43528332	     28.93956989	     -4.94440004	      1.41408480	    -70.78492824	    -16.77247511	      5.05866867	     29.47904270	      8.35538258	     13.58480521	     -6.46779915
      4.11500000	     -8.84189479	     -6.57839005	      6.80685066	     -0.10991572	     -0.01760693	      0.65360459	     17.36376496	      7.00483968	      4.08626211	    -23.91204353	      6.85222877	     -5.52030894	      9.25959120	     29.77733999	     -4.90586893	      1.19980869	    -70.86463010	    -16.32240422	      4.48673232	     29.08844680	      8.27601490	     13.47754041	     -6.15501140
      4.12000000	     -8.81948636	     -6.48214424	      6.57149845	     -0.10277866	     -0.01681735	      0.65420155	     16.50303167	      7.04906489	      4.43044836	    -23.23105685	      6.92371111	     -5.59449900	      9.09000882	     30.56038561	     -4.86648187	      0.96914857	    -70.85381165	    -15.89624142	      4.03316007	     28.73951229	      8.16419257	     13.35124320	     -5.75442519
      4.12500000	     -8.80430568	     -6.32360096	      6.32720836	     -0.09561887	     -0.01609400	      0.65485013	     15.65193821	      7.03144842	      4.82324701	    -22.57542763	      7.00714785	     -5.72950491	      8.88907709	     31.30956074	     -4.77506465	      0.71730983	    -70.75859742	    -15.44136276	      3.62229578	     28.31264645	      8.05226789	     13.14938504	     -5.36952875
      4.13000000	     -8.73714838	     -6.19341690	      6.09030820	     -0.08845030	     -0.01544186	      0.65544297	     14.75657713	      7.03194077	      5.16539272	    -21.93916225	      7.15062250	     -5.77165204	      8.51655357	     31.99787688	     -4.72182633	      0.48362790	    -70.65408138	    -14.70803866	      3.37517350	     27.23384548	      7.88850917	     12.98644080	     -5.01047071
